<svg width="28" height="28" viewBox="0 0 28 28" fill="none" xmlns="http://www.w3.org/2000/svg">
<path d="M11.559 17.1584V21.3806" stroke="#D70018" stroke-width="1.25" stroke-linecap="round" stroke-linejoin="round"/>
<path d="M9.07031 21.833H14.0464" stroke="#D70018" stroke-width="1.25" stroke-linecap="round" stroke-linejoin="round"/>
<path fill-rule="evenodd" clip-rule="evenodd" d="M14.9522 17.1585H6.42175C5.63654 17.1585 5 16.7129 5 16.1633V8.20152C5 7.65188 5.63654 7.2063 6.42175 7.2063H14.9522" fill="#FFEBED"/>
<path d="M14.9522 17.1585H6.42175C5.63654 17.1585 5 16.7129 5 16.1633V8.20152C5 7.65188 5.63654 7.2063 6.42175 7.2063H14.9522" stroke="#D70018" stroke-width="1.25" stroke-linecap="round" stroke-linejoin="round"/>
<rect x="15.5566" y="6" width="8.44431" height="16.8886" rx="1.8095" fill="#FFEBED" stroke="#D70018" stroke-width="1.25" stroke-linecap="round" stroke-linejoin="round"/>
<path fill-rule="evenodd" clip-rule="evenodd" d="M18.1191 19.8728H21.7381H18.1191Z" fill="#FFEBED"/>
<path d="M18.1191 19.8728H21.7381" stroke="#D70018" stroke-width="1.25" stroke-linecap="round" stroke-linejoin="round"/>
<path fill-rule="evenodd" clip-rule="evenodd" d="M19.8151 10.7041V10.72V10.7041Z" fill="#FFEBED"/>
<path d="M19.8151 10.7041V10.72" stroke="#D70018" stroke-width="1.25" stroke-linecap="round" stroke-linejoin="round"/>
</svg>
