<svg width="28" height="28" viewBox="0 0 28 28" fill="none" xmlns="http://www.w3.org/2000/svg">
<path d="M17.9228 10.0859V19.3043C17.9228 20.0976 17.2609 20.7306 16.4684 20.6952C15.7244 20.662 15.1382 20.0508 15.1382 19.306V10.4256C15.1382 9.251 14.9434 7.3629 15.6026 5.7846C16.2456 4.24489 17.7166 3 19.7792 3C23.9564 3 23.492 9.49741 21.6356 10.4256C20.1505 11.1682 18.3869 10.55 17.9228 10.0859Z" fill="#FFEBED" stroke="#D70018" stroke-width="1.25" stroke-linecap="round" stroke-linejoin="round"/>
<path d="M10.0518 13.7988V23.0172C10.0518 23.8105 10.7137 24.4435 11.5062 24.4081C12.2502 24.3749 12.8364 23.7637 12.8364 23.0189V14.1385C12.8364 12.9639 13.0312 11.0758 12.3721 9.49749C11.729 7.95778 10.258 6.71289 8.19538 6.71289C6.34146 6.71289 5.21117 8.56929 5.09237 9.49749C5.03609 9.93725 4.91951 11.3503 5.09237 12.2821C5.28437 13.3171 5.79565 13.8668 6.33898 14.1385C7.8241 14.8811 9.58768 14.2629 10.0518 13.7988Z" fill="#FFEBED" stroke="#D70018" stroke-width="1.25" stroke-linecap="round" stroke-linejoin="round"/>
<path d="M20.2441 5.78467L20.2441 7.64107" stroke="#D70018" stroke-width="1.25" stroke-linecap="round" stroke-linejoin="round"/>
</svg>
